# Made in Blockbench 4.7.2
mtllib Door.mtl

o cube
v 0.15625 1.75 0.375
v 0.15625 0 0.5
v 0.15625 0 -0.5
v -0.15625 0 0.5
v -0.15625 0 -0.5
v -0.15625 1.5625 0.5
v -0.15625 1.5625 -0.5
v 0.15625 1.5625 -0.5
v 0.15625 1.5625 0.5
v -0.15625 1.5625 -0.375
v -0.15625 0 -0.375
v 0.15625 0 -0.375
v 0.15625 1.5625 -0.375
v 0.15625 1.75 -0.375
v -0.15625 1.75 -0.375
v -0.15625 1.5625 0.375
v -0.15625 0 0.375
v 0.15625 0 0.375
v 0.15625 1.5625 0.375
v -0.15625 1.75 0.375
v -0.037499999999999936 0.015625 -0.3625
v -0.037499999999999936 1.546875 0.3625
v -0.037499999999999936 0.015625 0.3625
v -0.037499999999999936 1.546875 -0.3625
v -0.15625 0.09375 -0.375
v -0.15625 0.09375 -0.5
v 0.15625 0.09375 -0.5
v 0.15625 0.09375 -0.375
v 0.15625 0.09375 0.375
v 0.15625 0.09375 0.5
v -0.15625 0.09375 0.5
v -0.15625 0.09375 0.375
v -0.037499999999999936 0.10750000000000015 0.3625
v -0.037499999999999936 0.10750000000000015 -0.3625
v -0.037499999999999936 0.10750000000000015 -0.3625
v -0.037499999999999936 0.015625 -0.3625
v -0.03125 0 -0.375
v 0.15625 0 -0.375
v 0.15625 0.09375 -0.375
v 0.15625 1.5625 -0.375
v 0.15625 1.75 -0.375
v -0.15625 1.75 -0.375
v -0.15625 1.5625 -0.375
v -0.037499999999999936 1.546875 -0.3625
v -0.037499999999999936 0.10750000000000015 0.3625
v -0.037499999999999936 0.015625 0.3625
v -0.03125 0 0.375
v 0.15625 0 0.375
v 0.15625 0.09375 0.375
v 0.15625 1.5625 0.375
v 0.15625 1.75 0.375
v -0.15625 1.75 0.375
v -0.15625 1.5625 0.375
v -0.037499999999999936 1.546875 0.3625
v -0.1875 0 -0.53125
v -0.1875 0.09375 -0.53125
v 0.1875 0.09375 -0.53125
v 0.1875 0 -0.53125
v 0.1875 0.09375 -0.375
v 0.1875 0 -0.375
v 0.15625 0 -0.375
v 0.15625 0.09375 -0.375
v -0.19077139951618882 0 -0.3439217045962061
v -0.19077139951618882 0.09375 -0.3439217045962061
v -0.04077139951618877 0.015625 -0.33142170459620607
v -0.04077139951618877 0.10750000000000015 -0.33142170459620607
v -0.037499999999999936 0.10750000000000015 -0.3625
v -0.037499999999999936 0.015625 -0.3625
v -0.19077139951618882 0 0.3439217045962061
v -0.19077139951618882 0.09375 0.3439217045962061
v -0.04077139951618877 0.10750000000000015 0.33142170459620607
v -0.04077139951618877 0.015625 0.33142170459620607
v -0.037499999999999936 0.10750000000000015 0.3625
v -0.037499999999999936 0.015625 0.3625
v -0.037499999999999936 0.10750000000000015 -0.3625
v -0.006421704596205995 0.10750000000000015 -0.35922860048381117
v -0.006421704596205995 0.015625 -0.35922860048381117
v 0.02138519129139911 0.015625 -0.32487890556382837
v 0.02138519129139911 0.10750000000000015 -0.32487890556382837
v 0.1875 0.09375 -0.3125
v 0.1875 0 -0.3125
v 0.15625 0 -0.34375
v 0.15625 0.09375 -0.34375
v 0.15625 0 -0.375
v 0.15625 0 0.375
v 0.15625 0.09375 0.375
v 0.1875 0 0.375
v 0.1875 0.09375 0.375
v 0.1875 0.09375 0.53125
v 0.1875 0 0.53125
v -0.1875 0.09375 0.53125
v -0.1875 0 0.53125
v -0.037499999999999936 0.015625 -0.3625
v 0.15625 0.09375 -0.375
v -0.15625 1.65625 0.375
v -0.15625 1.65625 -0.375
v -0.15625 1.65625 -0.375
v -0.15625 1.65625 -0.5
v 0.15625 1.65625 -0.5
v 0.15625 1.65625 -0.375
v 0.15625 1.65625 -0.375
v 0.15625 1.65625 0.375
v 0.15625 1.65625 0.375
v 0.15625 1.65625 0.5
v -0.15625 1.65625 0.5
v -0.15625 1.65625 0.375
v -0.203125 1.671875 0.375
v -0.203125 1.671875 -0.375
v -0.203125 1.671875 -0.375
v -0.171875 1.671875 -0.53125
v 0.1875 1.6875 -0.53125
v 0.21875 1.65625 -0.375
v 0.21875 1.65625 -0.375
v 0.21875 1.65625 0.375
v 0.21875 1.65625 0.375
v 0.1875 1.6875 0.53125
v -0.171875 1.671875 0.53125
v -0.203125 1.671875 0.375
v -0.17708333333333334 1.7802083333333332 -0.5208333333333334
v -0.1875 1.78125 -0.375
v -0.1875 1.78125 0.375
v -0.17708333333333334 1.7770833333333333 0.5364583333333334
v 0.17708333333333334 1.7770833333333333 0.5364583333333334
v 0.1875 1.78125 0.375
v -0.1875 1.78125 -0.375
v 0.1875 1.78125 0.375
v -0.1875 1.78125 0.375
v 0.1875 1.78125 -0.375
v 0.17708333333333334 1.7802083333333332 -0.5208333333333334
v 0.1875 1.78125 -0.375
vt 0.7353364962130177 0.671875
vt 0.703125 0.671875
vt 0.7125987722788389 0.6324013463725078
vt 0.73571588039765 0.6354244121146004
vt 0.7129734375 0.56236875
vt 0.7101640625 0.53125
vt 0.75 0.53125
vt 0.749234375 0.5625
vt 0.7473953125 0.3125
vt 0.75 0.34375
vt 0.65625 0.34375
vt 0.6588546875 0.3125
vt 0.59415859375 0.4453125
vt 0.59415859375 0.4765625
vt 0.51603359375 0.4765625
vt 0.51603359375 0.4453125
vt 0.6894121895504891 0.4019115386764347
vt 0.6894121895504891 0.37554478696707305
vt 0.7793378104495109 0.375
vt 0.7778461172766404 0.39753438410963715
vt 0.712920894561986 0.9671548407735157
vt 0.6895069032113439 0.96875
vt 0.6895069032113439 0.8788218432227833
vt 0.7167430967886561 0.8786967411346445
vt 0.40625 0.5703125
vt 0.40625 0.203125
vt 0.4375 0.203125
vt 0.4375 0.5703125
vt 0.40625 0.9765625
vt 0.40625 0.609375
vt 0.484375 0.609375
vt 0.484375 0.9765625
vt 0 0.5390625
vt 0 0.171875
vt 0.03125 0.171875
vt 0.03125 0.5390625
vt 0.203125 0.5703125
vt 0.203125 0.203125
vt 0.28125 0.203125
vt 0.28125 0.5703125
vt 0 1
vt 0 1
vt 0 1
vt 0 1
vt 0.078125 1
vt 0.03125 1
vt 0.078125 1
vt 0 1
vt 0 1
vt 0 1
vt 0 1
vt 0 1
vt 0 1
vt 0 1
vt 0 1
vt 0 1
vt 0 1
vt 0.078125 1
vt 0 1
vt 0.078125 1
vt 0 1
vt 0 1
vt 0 1
vt 0 1
vt 0.046875 0.5390625
vt 0.046875 0.171875
vt 0.078125 0.171875
vt 0.078125 0.5390625
vt 0.57853359375 0.9016377341419753
vt 0.57853359375 0.8703877341419752
vt 0.65665859375 0.8703877341419752
vt 0.65665859375 0.9016377341419753
vt 0.09375 0.5390625
vt 0.09375 0.171875
vt 0.125 0.171875
vt 0.125 0.5390625
vt 0.30356116348236123 0.296875
vt 0.30356116348236123 0.27429075612757736
vt 0.34266619488863204 0.2633924913366643
vt 0.34375 0.29528184449718164
vt 0.6848953125 0.71875
vt 0.6875 0.765625
vt 0.59375 0.765625
vt 0.5963546875 0.71875
vt 0.5744965504863419 0.3125
vt 0.546875 0.3125
vt 0.5479791881831912 0.27267936860169084
vt 0.5738319616137246 0.27237397360213755
vt 0.3020908914525557 0.21918453316587017
vt 0.3020908914525557 0.24929066071518513
vt 0.3020908914525557 0.25
vt 0.3072841085474443 0.24929066071518513
vt 0.140625 0.55859375
vt 0.140625 0.19874999999999998
vt 0.171875 0.1953125
vt 0.171875 0.5625
vt 0 0.9701484794147769
vt 0 1
vt 0 0.9701484794147769
vt 0 1
vt 0.453125 0.59375
vt 0.453125 0.2265625
vt 0.484375 0.22999999999999998
vt 0.484375 0.58984375
vt 0.75 0.78125
vt 0.75 0.8125
vt 0.703125 0.8125
vt 0.703125 0.78125
vt 0.390625 0.359375
vt 0.390625 0.390625
vt 0.296875 0.390625
vt 0.296875 0.359375
vt 0.76171875 0.5859375
vt 0.76171875 0.609375
vt 0.72265625 0.609375
vt 0.72265625 0.5859375
vt 0.609375 0.296875
vt 0.59375 0.296875
vt 0.59375 0.265625
vt 0.609375 0.265625
vt 0.75 0.828125
vt 0.75 0.859375
vt 0.703125 0.859375
vt 0.703125 0.828125
vt 0.390625 0.3125
vt 0.390625 0.34375
vt 0.296875 0.34375
vt 0.296875 0.3125
vt 0.75 0.734375
vt 0.75 0.765625
vt 0.703125 0.765625
vt 0.703125 0.734375
vt 0.359375 0.25695647440212077
vt 0.375 0.25908862960540324
vt 0.375 0.296875
vt 0.359841806306915 0.29478548790078307
vt 0.65625 0.25
vt 0.671875 0.25
vt 0.671875 0.265625
vt 0.65625 0.265625
vt 0.7407546875 0.69578125
vt 0.7407546875 0.71875
vt 0.703125 0.7153125
vt 0.703125 0.691875
vt 0.20625 0.6171875
vt 0.3875 0.6171875
vt 0.3875 0.64015625
vt 0.20625 0.64015625
vt 0.203125 0.6129796875
vt 0.390625 0.6129796875
vt 0.3875 0.6171875
vt 0.20625 0.6171875
vt 0.546875 0.8125
vt 0.546875 1
vt 0.5 1
vt 0.5 0.8125
vt 0.1875 0.609375
vt 0 0.609375
vt 0 0.5859375
vt 0.1875 0.5859375
vt 0.1875 0.9765625
vt 0 0.9765625
vt 0 0.609375
vt 0.1875 0.609375
vt 0.5 0.546875
vt 0.5 0.515625
vt 0.6875 0.515625
vt 0.6875 0.546875
vt 0.296875 0.59375
vt 0.296875 0.40625
vt 0.390625 0.40625
vt 0.390625 0.59375
vt 0.5 0.640625
vt 0.5 0.609375
vt 0.6875 0.609375
vt 0.6875 0.640625
vt 0.503125 0.5625
vt 0.684375 0.5625
vt 0.6875 0.59375
vt 0.5 0.59375
vt 0.20625 0.64015625
vt 0.3875 0.64015625
vt 0.3875 1
vt 0.20625 1
vt 0.75 0.9375
vt 0.734375 0.9375
vt 0.734375 0.921875
vt 0.75 0.921875
vt 0.030550760292611563 1
vt 0.030550760292611563 1
vt 0.0006992397073884368 1
vt 0 1
vt 0.03125 1
vt 0.078125 1
vt 0.078125 1
vt 0.640625 0.78125
vt 0.65625 0.78125
vt 0.65625 0.8125
vt 0.640625 0.8125
vt 0 1
vt 0 1
vt 0 1
vt 0 1
vt 0 1
vt 0 1
vt 0 1
vt 0 1
vt 0.078125 1
vt 0.078125 1
vt 0 1
vt 0 1
vt 0 1
vt 0 1
vt 0 1
vt 0 1
vt 0 1
vt 0 1
vt 0.03125 1
vt 0.03125 1
vt 0 1
vt 0 1
vt 0 1
vt 0 1
vt 0.68009609375 0.84375
vt 0.58634609375 0.84375
vt 0.59415859375 0.8359375
vt 0.67228359375 0.8359375
vt 0.50822109375 0.4375
vt 0.60197109375 0.4375
vt 0.59415859375 0.4453125
vt 0.51603359375 0.4453125
vt 0.68009609375 0.8046875
vt 0.68009609375 0.84375
vt 0.67228359375 0.8359375
vt 0.67228359375 0.8046875
vt 0.60197109375 0.4375
vt 0.60197109375 0.4765625
vt 0.59415859375 0.4765625
vt 0.59415859375 0.4453125
vt 0.00390625 1
vt 0.01171875 1
vt 0.00390625 1
vt 0.00390625 1
vt 0.515625 0.265625
vt 0.515625 0.296875
vt 0.5 0.296875
vt 0.5 0.265625
vt 0.01171875 1
vt 0.00390625 1
vt 0.00390625 1
vt 0.00390625 1
vt 0.58634609375 0.84375
vt 0.58552890625 0.7969171875000001
vt 0.59415859375 0.8046875
vt 0.59415859375 0.8359375
vt 0.50740390625 0.48433281250000004
vt 0.50822109375 0.4375
vt 0.51603359375 0.4453125
vt 0.51603359375 0.4765625
vt 0.58552890625 0.7969171875
vt 0.6231788608407369 0.7937023090822012
vt 0.6240117272828133 0.8014702875669591
vt 0.5941422964132219 0.8046728256100313
vt 0.5450895695734764 0.4876595601003063
vt 0.50740390625 0.48433281250000004
vt 0.5160336223414983 0.47656247425574483
vt 0.5459416504038095 0.4799286402118921
vt 0.5008171875 0.25
vt 0.5 0.24222968749999996
vt 0.515625 0.25
vt 0.515625 0.25
vt 0.734375 0.90625
vt 0.734375 0.890625
vt 0.75 0.890625
vt 0.75 0.90625
vt 0.75 0.47660468749999996
vt 0.765625 0.484375
vt 0.765625 0.484375
vt 0.7508171875 0.484375
vt 0.6075487941171355 1
vt 0.56990390625 0.9967185375083547
vt 0.5785336223414983 0.9889481992640996
vt 0.608392510751296 0.9922597908585271
vt 0.56990390625 0.8626174216419753
vt 0.6075969682325746 0.859375
vt 0.6084345151303732 0.867142475229699
vt 0.5785126470505265 0.8703688733893986
vt 0.6258171875 0.9922296875
vt 0.625 1
vt 0.640625 0.984375
vt 0.640625 0.984375
vt 0 1
vt 0 1
vt 0 1
vt 0 1
vt 0.65625 0.421875
vt 0.671875 0.40625
vt 0.671875 0.40625
vt 0.6570671875 0.41410468749999996
vt 0.53517734375 0.25
vt 0.54294765625 0.24918281249999996
vt 0.53517734375 0.25
vt 0.53517734375 0.25
vt 0 1
vt 0 1
vt 0 1
vt 0 1
vt 0.76169765625 0.45230781249999996
vt 0.75392734375 0.453125
vt 0.75392734375 0.453125
vt 0.75392734375 0.453125
vt 0.6953132361042726 0.25
vt 0.7031249291794733 0.265625
vt 0.6875000708205267 0.265625
vt 0.6875000708205267 0.25
vt 0.71875 0.25000022336182615
vt 0.734375 0.2578118347158266
vt 0.734375 0.265625
vt 0.71875 0.265625
vt 0.7563796875 0.69578125
vt 0.7563796875 0.71875
vt 0.7407546875 0.71875
vt 0.7407546875 0.69578125
vt 0.71875 0.2890625
vt 0.734375 0.28125
vt 0.734375 0.296875
vt 0.71875 0.296875
vt 0.75 0.96875
vt 0.734375 0.9609375
vt 0.734375 0.953125
vt 0.75 0.953125
vt 0.70703125 0.609375
vt 0.70703125 0.5859375
vt 0.72265625 0.5859375
vt 0.72265625 0.609375
vt 0 1
vt 0 0.9921875
vt 0 1
vt 0 1
vt 0 1
vt 0 1
vt 0 1
vt 0 1
vt 0 0.9921875
vt 0 1
vt 0 1
vt 0 1
vt 0.00390625 1
vt 0.01171875 1
vt 0.00390625 1
vt 0.00390625 1
vt 0 1
vt 0 1
vt 0 1
vt 0 1
vt 0.01171875 1
vt 0.00390625 1
vt 0.00390625 1
vt 0.00390625 1
vt 0.66447109375 0.9498857250083548
vt 0.66447109375 0.9889482250083548
vt 0.65665859375 0.9889482250083548
vt 0.65665859375 0.9576982250083548
vt 0.66447109375 0.8703877341419752
vt 0.66447109375 0.9094502341419753
vt 0.65665859375 0.9016377341419753
vt 0.65665859375 0.8703877341419752
vt 0.57072109375 0.9498857250083548
vt 0.66447109375 0.9498857250083548
vt 0.65665859375 0.9576982250083548
vt 0.57853359375 0.9576982250083548
vt 0.66447109375 0.9094502341419753
vt 0.57072109375 0.9094502341419753
vt 0.57853359375 0.9016377341419753
vt 0.65665859375 0.9016377341419753
vt 0.56990390625 0.9967185375083547
vt 0.57072109375 0.9498857250083548
vt 0.57853359375 0.9576982250083548
vt 0.57853359375 0.9889482250083548
vt 0.57072109375 0.9094502341419753
vt 0.56990390625 0.8626174216419753
vt 0.57853359375 0.8703877341419752
vt 0.57853359375 0.9016377341419753
vt 0.6875 0.65625
vt 0.6875 0.6875
vt 0.5 0.6875
vt 0.5 0.65625
vt 0 1
vt 0 1
vt 0 1
vt 0 1
vt 0.4375 0.5703125
vt 0.4375 0.59375
vt 0.40625 0.59375
vt 0.40625 0.5703125
vt 0.484375 0.9765625
vt 0.484375 1
vt 0.40625 1
vt 0.40625 0.9765625
vt 0.03125 0.5390625
vt 0.03125 0.5625
vt 0 0.5625
vt 0 0.5390625
vt 0 1
vt 0 1
vt 0 1
vt 0 1
vt 0.1875 0.9765625
vt 0.1875 1
vt 0 1
vt 0 0.9765625
vt 0 1
vt 0 1
vt 0 1
vt 0 1
vt 0.125 0.5390625
vt 0.125 0.5625
vt 0.09375 0.5625
vt 0.09375 0.5390625
vt 0.28125 0.5703125
vt 0.28125 0.59375
vt 0.203125 0.59375
vt 0.203125 0.5703125
vt 0.078125 0.5390625
vt 0.078125 0.5625
vt 0.046875 0.5625
vt 0.046875 0.5390625
vt 0 1
vt 0 1
vt 0 1
vt 0 1
vt 0.669921875 0.36328125
vt 0.666015625 0.390625
vt 0.658203125 0.3828125
vt 0.658203125 0.359375
vt 0.875 1
vt 0.6875 1
vt 0.6875 0.984375
vt 0.875 0.984375
vt 0.630859375 0.5
vt 0.626953125 0.47265625
vt 0.638671875 0.46875
vt 0.638671875 0.4921875
vt 0.703125 0.2928375000000001
vt 0.6632890625 0.2928375000000001
vt 0.6701828125 0.286203125
vt 0.7008265625 0.28125
vt 0.630859375 0.453125
vt 0.626953125 0.42578125
vt 0.638671875 0.421875
vt 0.638671875 0.4453125
vt 0.607421875 0.31640625
vt 0.603515625 0.34375
vt 0.595703125 0.3359375
vt 0.595703125 0.3125
vt 0.5398359375 0.7878371143943068
vt 0.5 0.7878371143943068
vt 0.5022984375 0.7757011768943067
vt 0.5329421875 0.7815027393943068
vt 0.603515625 0.34375
vt 0.509765625 0.34375
vt 0.517578125 0.3359375
vt 0.595703125 0.3359375
vt 0.724609375 0.5
vt 0.630859375 0.5
vt 0.638671875 0.4921875
vt 0.716796875 0.4921875
vt 0.666015625 0.390625
vt 0.572265625 0.390625
vt 0.580078125 0.3828125
vt 0.658203125 0.3828125
vt 0.603480371785776 0.42010206366960734
vt 0.513707128214224 0.41483593750000003
vt 0.5224692893264926 0.4045246263030824
vt 0.6002502029798619 0.41143597065275683
vt 0.724609375 0.453125
vt 0.630859375 0.453125
vt 0.638671875 0.4453125
vt 0.716796875 0.4453125
vt 0.732421875 0.421875
vt 0.724609375 0.453125
vt 0.716796875 0.4453125
vt 0.716796875 0.421875
vt 0.513707128214224 0.41483593750000003
vt 0.505894628214224 0.375
vt 0.521519628214224 0.375
vt 0.521519628214224 0.40564218750000003
vt 0.732421875 0.46875
vt 0.724609375 0.5
vt 0.716796875 0.4921875
vt 0.716796875 0.46875
vt 0.640625 0.171875
vt 0.640625 0.359375
vt 0.625 0.359375
vt 0.625 0.171875
vt 0.572265625 0.390625
vt 0.564453125 0.359375
vt 0.580078125 0.359375
vt 0.580078125 0.3828125
vt 0.515625 0.703125
vt 0.515625 0.7437200119186554
vt 0.5016087782940994 0.7362031141456247
vt 0.5 0.7061318368589123
vt 0.509765625 0.34375
vt 0.501953125 0.3125
vt 0.517578125 0.3125
vt 0.517578125 0.3359375
vt 0.5700218607093726 0.703125
vt 0.5398359375 0.7878371143943068
vt 0.532790047397609 0.7813629442956911
vt 0.5575102982568915 0.7073137165114499
vt 0.7515625 0.505003125
vt 0.75 0.5
vt 0.78125 0.5
vn 0.9600307214746386 0.24000768036865966 -0.1440046082211958
vn -0.98018863123782 -0.02827467205493731 -0.196037726247564
vn 0 0.9999744907720328 -0.007142674934087064
vn 0 -1 0
vn 0.002145145657982145 -0.0493383501335893 0.9987798183564791
vn -0.004831284894155697 0.11111955256558106 -0.9937953027278288
vn -1 0 0
vn 0 0 -1
vn 1 0 0
vn 0 0 1
vn 0 0 0
vn 0 0 0
vn 0 0 0
vn 0 0 0
vn 0 0 0
vn 0 0 0
vn -1 0 0
vn 0 -1 0
vn 1 0 0
vn 0.9790807585458113 0.10366737443426219 0.17508267682230982
vn 0 0.9996671797553116 0.025797862703362782
vn -0.9710989148312602 0.13872841640446576 0.19421978296625206
vn 0 0.6246950475544246 -0.78086880944303
vn -0.10468478451804279 0 -0.9945054529214062
vn 0 0 0
vn -0.1046847845180428 0 0.9945054529214062
vn -0.9998475487147493 0 -0.01746079405717886
vn 0 0 -1
vn 1 0 0
vn -0.7071067811865476 0 0.7071067811865476
vn 1 0 0
vn 0 0 1
vn -0.9998475487147493 0 0.01746079405717886
vn -0.08304547985374001 0 -0.9965457582448797
vn 0.7772448707074858 0 -0.6291982286679644
vn -0.08304547985374003 0 0.9965457582448798
vn -1 0 0
vn -0.9284766908852606 -0.37139067635410045 0
vn 0 -1 0
vn 1 0 0
vn 1 0 0
vn 0.970142500145332 0.242535625036333 0
vn 0 1 0
vn -0.9899494936611667 0.14142135623730953 0
vn -0.13045451257138727 -0.9914542955425438 0
vn -1 0 0
vn 0.9945054529214061 0 -0.10468478451804282
vn 0 0 0
vn 0 0 0
vn 0 0 -1
vn 0 0 0
vn 0 0 0
vn 0 0 0
vn 0 0 0
vn 0 0 0
vn 0 0 0
vn 0 1 0
vn 0 -1 0
vn 0 1 0
vn 0 -1 0
vn 0 0 0
vn -1 0 0
vn 0 0 0
vn 0 1 0
vn 0 -1 0
vn -0.09049259937565374 0.9958515720765617 -0.009525536776384602
vn 0.09438784583596023 -0.9899992338934638 0.10484489233530644
vn 0 0 0
vn 0.1046847845180423 0 -0.9945054529214061
vn 0 0 0
vn -0.08324839816308875 0.9922291861837158 0.09247132684503405
vn 0.10270870484768489 -0.9946527206302118 -0.01081144261554583
vn 0 0 0
vn 0 0 0
vn 0 0 0
vn 0 0 0
vn 0 0 0
vn 0 0 0
vn 0 -1 0
vn 0 1 0
vn -0.1046847845180432 0 0.9945054529214061
vn 0 1 0
vn 0 -1 0
vn 1 0 0
vn 0 0 0
vn 0 0 0
vn 0 0 0
vn 0 0 0
vn 0 0 0
vn 0 0 0
vn 0 1 0
vn 0 -1 0
vn 0 1 0
vn 0 -1 0
vn 0 1 0
vn 0 -1 0
vn -1 0 0
vn 0 0 0
vn -1 0 0
vn 0 0 -1
vn 1 0 0
vn 0 0 0
vn 1 0 0
vn 0 0 0
vn 1 0 0
vn 0 0 1
vn -1 0 0
vn 0 0 0
vn 0 0 -1
vn -0.316227766016838 -0.948683298050514 0
vn 0 0 1
vn -0.5773502691896258 -0.8082903768654762 -0.11547005383792516
vn 0 0 1
vn 0 0 -1
vn -0.3155972015489016 -0.9467916046467048 0.06311944030978031
vn 0 0 -1
vn 0 0 1
vn 0 0 -1
vn 0.03140371465106639 -0.7222854369745269 -0.6908817223234605
vn 0 0 1
vn 0 0 1
vn 0 -0.9805806756909202 -0.19611613513818404
vn 0 0 1
vn 0 -1 0
vn 0 0 -1
vn 0.5345224838248488 -0.8017837257372732 0.2672612419124244
vn 0 0 -1
vn 0.038518560788567274 -0.8859268981370474 0.4622227294628073
vn 0 -0.6246950475544246 -0.78086880944303
usemtl m_f51459b2-c60e-1bf3-d211-c930cd5aed59
f 130/1/1 112/2/1 111/3/1 129/4/1
f 119/5/2 110/6/2 109/7/2 120/8/2
f 119/9/3 120/10/3 130/11/3 129/12/3
f 3/13/4 12/14/4 11/15/4 5/16/4
f 122/17/5 117/18/5 116/19/5 123/20/5
f 129/21/6 111/22/6 110/23/6 119/24/6
f 7/25/7 26/26/7 25/27/7 10/28/7
f 8/29/8 27/30/8 26/31/8 7/32/8
f 13/33/9 28/34/9 27/35/9 8/36/9
f 6/37/10 31/38/10 30/39/10 9/40/10
f 34/41/11 44/42/11 35/43/11 24/44/11
f 12/45/12 37/46/12 38/47/12 11/48/12
f 13/49/13 39/50/13 40/51/13 28/52/13
f 40/53/14 100/54/14 101/55/14 14/56/14
f 15/57/15 41/58/15 42/59/15 14/60/15
f 15/61/16 96/62/16 97/63/16 43/64/16
f 16/65/17 32/66/17 31/67/17 6/68/17
f 4/69/18 17/70/18 18/71/18 2/72/18
f 9/73/19 30/74/19 29/75/19 19/76/19
f 123/77/20 116/78/20 115/79/20 124/80/20
f 123/81/21 124/82/21 121/83/21 122/84/21
f 121/85/22 118/86/22 117/87/22 122/88/22
f 11/89/23 36/90/23 37/91/23 21/92/23
f 22/93/24 33/94/24 32/95/24 16/96/24
f 24/97/25 43/98/25 44/99/25 10/100/25
f 10/101/26 25/102/26 34/103/26 24/104/26
f 63/105/27 64/106/27 56/107/27 55/108/27
f 55/109/28 56/110/28 57/111/28 58/112/28
f 58/113/29 57/114/29 59/115/29 60/116/29
f 80/117/30 83/118/30 82/119/30 81/120/30
f 87/121/31 88/122/31 89/123/31 90/124/31
f 90/125/32 89/126/32 91/127/32 92/128/32
f 92/129/33 91/130/33 70/131/33 69/132/33
f 69/133/34 70/134/34 71/135/34 72/136/34
f 78/137/35 77/138/35 76/139/35 79/140/35
f 65/141/36 66/142/36 64/143/36 63/144/36
f 36/145/37 46/146/37 45/147/37 35/148/37
f 37/149/38 47/150/38 46/151/38 36/152/38
f 38/153/39 48/154/39 47/155/39 37/156/39
f 39/157/40 49/158/40 48/159/40 38/160/40
f 40/161/41 50/162/41 49/163/41 39/164/41
f 126/165/42 114/166/42 113/167/42 128/168/42
f 125/169/43 127/170/43 126/171/43 128/172/43
f 125/173/44 108/174/44 107/175/44 127/176/44
f 44/177/45 54/178/45 53/179/45 43/180/45
f 35/181/46 45/182/46 54/183/46 44/184/46
f 71/185/47 73/186/47 74/187/47 72/188/47
f 23/189/48 46/190/48 17/191/48
f 17/192/49 47/193/49 48/194/49 18/195/49
f 87/196/50 85/197/50 86/198/50 88/199/50
f 29/200/51 49/201/51 50/202/51 19/203/51
f 1/204/52 102/205/52 103/206/52 51/207/52
f 1/208/53 51/209/53 52/210/53 20/211/53
f 52/212/54 106/213/54 95/214/54 20/215/54
f 16/216/55 53/217/55 54/218/55 22/219/55
f 22/220/56 54/221/56 45/222/56 33/223/56
f 57/224/57 56/225/57 26/226/57 27/227/57
f 55/228/58 58/229/58 3/230/58 5/231/58
f 59/232/59 57/233/59 27/234/59 28/235/59
f 58/236/60 60/237/60 12/238/60 3/239/60
f 62/240/61 59/241/61 28/242/61 39/243/61
f 82/244/62 83/245/62 94/246/62 84/247/62
f 60/248/63 61/249/63 38/250/63 12/251/63
f 56/252/64 64/253/64 25/254/64 26/255/64
f 63/256/65 55/257/65 5/258/65 11/259/65
f 64/260/66 66/261/66 34/262/66 25/263/66
f 65/264/67 63/265/67 11/266/67 21/267/67
f 68/268/68 65/269/68 21/270/68 36/271/68
f 76/272/69 77/273/69 93/274/69 75/275/69
f 66/276/70 67/277/70 35/278/70 34/279/70
f 71/280/71 70/281/71 32/282/71 33/283/71
f 69/284/72 72/285/72 23/286/72 17/287/72
f 73/288/73 71/289/73 33/290/73 45/291/73
f 74/292/74 73/293/74 45/294/74 46/295/74
f 72/296/75 74/297/75 46/298/75 23/299/75
f 93/300/76 77/301/76 68/302/76 36/303/76
f 75/304/77 93/305/77 36/306/77 35/307/77
f 76/308/78 75/309/78 35/310/78 67/311/78
f 77/312/79 78/313/79 65/314/79 68/315/79
f 79/316/80 76/317/80 67/318/80 66/319/80
f 78/320/81 79/321/81 66/322/81 65/323/81
f 83/324/82 80/325/82 59/326/82 62/327/82
f 81/328/83 82/329/83 61/330/83 60/331/83
f 80/332/84 81/333/84 60/334/84 59/335/84
f 94/336/85 83/337/85 62/338/85 39/339/85
f 84/340/86 94/341/86 39/342/86 38/343/86
f 82/344/87 84/345/87 38/346/87 61/347/87
f 85/348/88 87/349/88 18/350/88 48/351/88
f 86/352/89 85/353/89 48/354/89 49/355/89
f 88/356/90 86/357/90 49/358/90 29/359/90
f 89/360/91 88/361/91 29/362/91 30/363/91
f 87/364/92 90/365/92 2/366/92 18/367/92
f 91/368/93 89/369/93 30/370/93 31/371/93
f 90/372/94 92/373/94 4/374/94 2/375/94
f 70/376/95 91/377/95 31/378/95 32/379/95
f 92/380/96 69/381/96 17/382/96 4/383/96
f 53/384/97 95/385/97 96/386/97 43/387/97
f 42/388/98 96/389/98 97/390/98 10/391/98
f 10/392/99 97/393/99 98/394/99 7/395/99
f 7/396/100 98/397/100 99/398/100 8/399/100
f 8/400/101 99/401/101 100/402/101 13/403/101
f 13/404/102 100/405/102 101/406/102 41/407/102
f 40/408/103 101/409/103 102/410/103 50/411/103
f 50/412/104 102/413/104 103/414/104 19/415/104
f 19/416/105 103/417/105 104/418/105 9/419/105
f 9/420/106 104/421/106 105/422/106 6/423/106
f 6/424/107 105/425/107 106/426/107 16/427/107
f 16/428/108 106/429/108 95/430/108 53/431/108
f 108/432/109 125/433/109 42/434/109 96/435/109
f 107/436/110 108/437/110 96/438/110 95/439/110
f 127/440/111 107/441/111 95/442/111 52/443/111
f 109/444/112 110/445/112 98/446/112 97/447/112
f 120/448/113 109/449/113 97/450/113 15/451/113
f 118/452/114 121/453/114 20/454/114 106/455/114
f 117/456/115 118/457/115 106/458/115 105/459/115
f 121/460/116 124/461/116 1/462/116 20/463/116
f 126/464/117 127/465/117 52/466/117 51/467/117
f 125/468/118 128/469/118 41/470/118 42/471/118
f 110/472/119 111/473/119 99/474/119 98/475/119
f 130/476/120 120/477/120 15/478/120 14/479/120
f 112/480/121 130/481/121 14/482/121 100/483/121
f 111/484/122 112/485/122 100/486/122 99/487/122
f 114/488/123 126/489/123 51/490/123 102/491/123
f 113/492/124 114/493/124 102/494/124 101/495/124
f 128/496/125 113/497/125 101/498/125 41/499/125
f 115/500/126 116/501/126 104/502/126 103/503/126
f 124/504/127 115/505/127 103/506/127 1/507/127
f 116/508/128 117/509/128 105/510/128 104/511/128
f 46/512/129 47/513/129 17/514/129